<?xml version="1.0" encoding="utf-8"?>
<!-- Svg Vector Icons : http://www.onlinewebfonts.com/icon -->
<!DOCTYPE svg PUBLIC "-//W3C//DTD SVG 1.1//EN" "http://www.w3.org/Graphics/SVG/1.1/DTD/svg11.dtd">
<svg version="1.1" xmlns="http://www.w3.org/2000/svg" xmlns:xlink="http://www.w3.org/1999/xlink" x="0px" y="0px" viewBox="0 0 1000 1000" enable-background="new 0 0 1000 1000" xml:space="preserve">
<metadata> Svg Vector Icons : http://www.onlinewebfonts.com/icon </metadata>
<g><g transform="translate(0.000000,485.000000) scale(0.100000,-0.100000)"><path d="M4731.8,4490.1c-485.1-59.4-966.4-222.4-1311.6-444.9C2659,3554.4,2162.4,2774,2045.4,1884.3c-19.2-147.6-15.3-565.7,7.7-839.9c3.8-47.9-7.7-57.5-149.6-118.9C1167.2,603.4,567-23.6,294.7-756.1C-4.4-1563.3,41.6-2414.7,429-3168.3c147.7-289.5,308.7-510,544.6-747.8c293.4-293.4,575.2-487.1,941.5-642.4c974.1-414.2,2093.9-278,2937.6,356.6l149.6,113.1l80.5-65.2c575.2-465.9,1399.8-707.5,2143.7-625.1c1004.8,109.3,1877.2,703.7,2335.5,1591.5c791.9,1532.1,143.8,3384.4-1434.3,4097.7c-180.2,80.5-184.1,84.4-180.2,145.7c23,331.7,26.8,680.7,7.7,828.3c-117,887.8-613.6,1670.1-1374.8,2161c-264.6,170.7-730.6,350.9-1052.7,408.4C5358.8,4482.5,4864.1,4505.5,4731.8,4490.1z M5462.3,4089.4c337.5-57.5,698-205.2,1008.6-414.2c195.6-130.4,565.7-502.4,694.1-698c312.5-477.5,460.2-1000.9,437.2-1570.4c-5.8-145.7-17.3-272.3-28.8-283.8c-11.5-11.5-92-5.8-218.6,11.5c-778.5,117-1576.2-86.3-2203.2-558c-143.8-107.4-170.6-118.9-209-74.8c-46,57.5-360.5,258.9-550.3,354.7c-393.1,197.5-745.9,285.7-1204.2,303c-233.9,7.7-358.6,1.9-525.4-21.1c-159.2-24.9-224.4-26.8-239.7-11.5c-38.3,38.3-26.8,709.5,15.3,901.2c168.8,770.8,625.1,1390.2,1315.4,1787.1c235.8,136.1,644.3,264.6,949.2,301C4896.7,4139.2,5247.6,4127.7,5462.3,4089.4z M3462.4,770.2c226.3-32.6,492.8-113.1,707.6-210.9c143.8-65.2,441-247.4,517.7-320.2l44.1-38.3l-84.4-97.8c-199.4-235.8-414.2-602.1-510-874.4c-24.9-69-51.8-132.3-59.5-141.9c-7.7-7.7-105.5,28.8-216.7,84.4C3295.6-552.8,2850.7-86.9,2605.3,486.5c-117,274.2-120.8,249.3,40.3,276.1c76.7,11.5,153.4,24.9,168.7,28.8C2904.4,808.6,3287.9,797.1,3462.4,770.2z M7383.7,760.6c126.6-26.8,124.6-7.7,23-251.2c-255-605.9-732.5-1096.8-1330.7-1371c-78.6-36.4-147.6-57.5-155.3-49.8c-7.7,7.7-32.6,70.9-57.5,140c-94,268.4-278,586.8-481.3,836l-111.2,136.1l42.2,38.3c247.4,226.3,790,465.9,1202.3,531.1C6724.1,804.8,7203.4,799,7383.7,760.6z M2191.1,528.6c57.5-178.3,255-556.1,387.3-742c308.7-429.5,751.6-788.1,1232.9-999l163-72.9l-1.9-72.9c-1.9-42.2-9.6-178.3-17.2-306.8c-44.1-673,184.1-1411.3,598.3-1940.5c55.6-71,118.9-151.5,140-180.3l40.3-51.8l-149.6-105.5c-297.2-210.9-632.8-356.6-1008.6-435.3c-251.2-53.7-686.5-59.5-945.3-11.5c-1093,199.4-1934.7,1045-2126.5,2136.1c-40.3,226.3-40.3,644.3,1.9,882C628.4-641,1069.4,9,1711.8,413.6c92,57.5,408.4,212.8,435.3,214.8C2152.8,628.3,2173.9,582.3,2191.1,528.6z M8041.3,544C8747,210.3,9266.6-428.2,9462.2-1200.9c65.2-264.6,82.5-759.3,36.4-1037.4c-187.9-1100.6-1027.8-1952-2128.4-2151.4c-258.9-47.9-694.1-42.2-945.3,11.5c-414.2,86.3-824.5,274.2-1104.5,504.3l-53.7,44.1l90.1,105.5c475.5,569.5,730.6,1323.1,690.3,2042.1c-7.7,126.6-21.1,266.5-28.8,310.6l-15.3,80.5l164.9,69c366.2,153.4,788.1,456.4,1050.8,757.4c251.2,285.7,492.8,690.3,590.6,993.2c17.3,53.7,36.4,99.7,42.2,99.7C7857.3,628.3,7943.6,590,8041.3,544z M5109.5-180.8c53.7-67.1,126.5-168.7,163-226.3c136.1-212.8,306.8-596.3,279.9-625.1c-24.9-23-375.8-65.2-552.2-65.2c-176.4,0-527.3,42.2-552.2,65.2c-26.9,28.8,143.8,412.3,279.9,625.1c80.5,128.5,251.2,345.2,270.4,345.2C5006-61.9,5055.8-115.6,5109.5-180.8z M4580.3-1434.9c228.2-34.5,730.6-26.9,931.9,13.4c67.1,13.4,124.6,19.2,130.4,13.4c34.5-32.6,53.7-402.7,32.6-619.3c-53.7-567.6-258.9-1058.4-623.2-1486l-53.7-63.3l-57.5,65.2c-90.1,103.5-283.8,396.9-352.8,533.1c-170.7,343.2-262.7,726.7-266.5,1123.6c-1.9,266.5,15.3,450.6,44.1,450.6C4373.2-1404.2,4469.1-1417.6,4580.3-1434.9z"/></g></g>
</svg>