<?xml version="1.0" encoding="utf-8"?>
<!-- Svg Vector Icons : http://www.onlinewebfonts.com/icon -->
<!DOCTYPE svg PUBLIC "-//W3C//DTD SVG 1.1//EN" "http://www.w3.org/Graphics/SVG/1.1/DTD/svg11.dtd">
<svg version="1.1" xmlns="http://www.w3.org/2000/svg" xmlns:xlink="http://www.w3.org/1999/xlink" x="0px" y="0px" viewBox="0 0 1000 1000" enable-background="new 0 0 1000 1000" xml:space="preserve">
<metadata> Svg Vector Icons : http://www.onlinewebfonts.com/icon </metadata>
<g><g transform="translate(0.000000,511.000000) scale(0.100000,-0.100000)"><path d="M4746.7,4673.5c-1263.7-98.1-2375.3-955.3-2791.9-2155c-86.1-244.3-148.2-522.7-166.2-745l-14-166.2l-90.1-54.1c-178.3-104.2-476.7-338.5-642.9-504.7C548.9,553.8,256.5-19,134.4-722c-34.1-202.3-38.1-298.4-32-600.8c14-516.7,98.1-865.2,316.4-1321.8C863.4-3569.9,1756.6-4242.9,2774-4417.1c270.4-48.1,739-58.1,989.4-22c364.5,54.1,733,172.2,1065.5,346.5l176.2,90.1l204.3-106.1c1762.4-901.3,3911.4-22.1,4542.3,1858.6c124.2,368.5,150.2,544.7,148.2,1017.4c0,368.5-6,460.6-44.1,634.9c-196.3,905.2-727,1656.3-1504.1,2134.9c-116.2,70.1-122.2,78.1-122.2,152.2c0,144.2-80.1,546.8-150.2,761.1c-94.1,280.4-278.4,648.9-444.6,883.2c-174.2,244.3-504.7,574.8-747,745c-464.6,328.5-1049.5,548.8-1552.1,586.8C5009.1,4689.5,4951,4689.5,4746.7,4673.5z M5565.9,4204.8c995.4-220.3,1794.5-931.3,2102.9-1872.6c54.1-164.2,128.2-498.7,114.2-512.7c-2-4-64.1,12-134.2,34.1c-296.4,94.1-482.7,120.2-871.2,132.2c-328.5,10-414.6,4-628.9-32c-312.4-54.1-670.9-172.2-937.3-310.4l-206.3-108.1l-206.3,108.1c-266.4,138.2-624.9,256.4-937.3,310.4c-214.3,36-300.4,42.1-628.9,32c-388.5-12-574.8-38.1-871.2-132.2c-70.1-22-132.2-36.1-136.2-32c-4,4,12,100.1,36,212.3c242.3,1135.6,1137.6,1986.7,2303.2,2193C4768.8,4262.9,5363.6,4250.9,5565.9,4204.8z M3949.6,1503.1c196.3-46.1,602.8-192.3,640.9-230.3c8-8-72.1-106.2-180.2-214.3c-272.4-272.4-440.6-506.7-612.8-849.2C3643.2-99.1,3547.1-381.5,3493-699.9c-16-98.1-32.1-182.3-36-184.3c-14-14-266.4,194.3-426.6,354.5c-466.6,460.6-763,1083.5-821.1,1720.4l-12,150.2l146.2,56.1c360.5,134.2,612.9,174.2,1049.5,164.2C3667.3,1555.2,3775.4,1545.2,3949.6,1503.1z M7057.9,1549.1c198.3-26,422.6-84.1,606.8-152.2c168.2-64.1,160.2-42.1,112.2-364.5c-34.1-240.3-150.2-606.8-258.4-825.1c-196.3-390.5-530.7-785.1-883.2-1037.4l-86.1-64.1l-10,46.1c-4,26-24,132.2-44,236.3C6383,17,6010.5,692,5531.8,1130.6c-82.1,74.1-126.2,128.2-114.2,140.2c10,10,108.2,54.1,218.3,98.1c204.3,82.1,454.6,150.2,664.9,180.2C6471.1,1573.2,6881.7,1575.2,7057.9,1549.1z M1800.7,1028.4c0-32,18-146.2,42.1-252.4c186.2-857.2,733-1630.2,1470-2078.9l140.2-84.1l14-164.2c62.1-737,430.6-1494.1,987.4-2022.8c84.1-80.1,150.2-148.2,146.2-152.2c-24-20-230.3-114.2-348.5-156.2c-304.4-108.2-528.7-144.2-919.3-144.2c-406.6,0-582.8,28-921.3,144.2c-428.6,148.2-783.1,378.5-1111.5,721c-376.5,392.5-600.8,819.1-725,1369.9c-66.1,300.4-66.1,817.1,0,1117.5c122.2,542.8,346.5,973.3,705,1351.9c182.2,192.3,476.7,436.6,504.7,420.6C1792.7,1092.5,1800.7,1062.5,1800.7,1028.4z M8660.2,740c418.6-416.6,650.9-843.2,775.1-1418c62.1-292.4,62.1-817.1,0-1109.6c-118.2-542.7-348.5-981.3-725-1373.9c-324.5-340.5-685-572.8-1111.5-721c-340.5-116.2-514.7-144.2-921.3-144.2c-392.5,0-544.8,24-875.2,132.2c-136.2,44.1-358.5,140.2-392.5,168.2c-2,2,92.1,102.1,210.3,222.3c258.3,264.4,424.6,490.7,584.8,805.1c188.3,370.5,302.4,759.1,338.5,1153.6l14,158.2l130.2,80.1c592.8,362.5,1071.5,929.3,1323.8,1572.2c80.1,206.3,166.3,524.7,188.3,695c8,56.1,16,112.2,22,126.2C8235.6,1130.6,8397.8,1002.4,8660.2,740z M5189.4,862.2c520.7-454.6,873.2-1147.6,929.3-1828.5l14-160.2l-218.3-72.1c-364.5-120.2-514.7-144.2-909.2-144.2c-394.6,0-544.8,24-905.3,144.2l-216.3,70.1v84.1c0,142.2,60.1,452.6,132.2,674.9c154.2,478.6,454.6,935.3,825.1,1251.7c82.1,70.1,156.2,128.2,164.2,128.2C5013.1,1010.4,5097.2,944.3,5189.4,862.2z M4095.8-1651.3c332.5-96.2,458.6-112.2,919.3-112.2c462.6,2,610.8,22.1,951.3,128.2c70.1,22,132.2,36.1,136.2,32.1c14-14-38-272.4-90.1-440.6c-154.2-496.7-448.6-955.3-823.1-1283.8c-92.1-82.1-176.3-148.2-184.3-148.2c-8,0-92.1,66.1-184.3,148.2c-442.6,386.5-765.1,943.3-887.2,1530.1c-38.1,182.3-38.1,212.3-2,198.3C3945.6-1605.2,4019.7-1627.2,4095.8-1651.3z"/></g></g>
</svg>